<svg id="visual" viewBox="0 0 960 540" width="960" height="540"><rect width="960" height="540" fill="#001829"></rect><g><g transform="translate(70 220)"><path d="M0 -47.6L41.2 -23.8L41.2 23.8L0 47.6L-41.2 23.8L-41.2 -23.8Z" fill="none" stroke="#009473" stroke-width="2"></path></g><g transform="translate(146 448)"><path d="M0 -23L19.9 -11.5L19.9 11.5L0 23L-19.9 11.5L-19.9 -11.5Z" fill="none" stroke="#009473" stroke-width="2"></path></g><g transform="translate(491 467)"><path d="M0 -30L26 -15L26 15L0 30L-26 15L-26 -15Z" fill="none" stroke="#009473" stroke-width="2"></path></g><g transform="translate(222 342)"><path d="M0 -30L26 -15L26 15L0 30L-26 15L-26 -15Z" fill="none" stroke="#009473" stroke-width="2"></path></g><g transform="translate(678 520)"><path d="M0 -45L39 -22.5L39 22.5L0 45L-39 22.5L-39 -22.5Z" fill="none" stroke="#009473" stroke-width="2"></path></g><g transform="translate(897 356)"><path d="M0 -44L38.1 -22L38.1 22L0 44L-38.1 22L-38.1 -22Z" fill="none" stroke="#009473" stroke-width="2"></path></g><g transform="translate(387 355)"><path d="M0 -23L19.9 -11.5L19.9 11.5L0 23L-19.9 11.5L-19.9 -11.5Z" fill="none" stroke="#009473" stroke-width="2"></path></g><g transform="translate(95 318)"><path d="M0 -33L28.6 -16.5L28.6 16.5L0 33L-28.6 16.5L-28.6 -16.5Z" fill="none" stroke="#009473" stroke-width="2"></path></g><g transform="translate(253 15)"><path d="M0 -26L22.5 -13L22.5 13L0 26L-22.5 13L-22.5 -13Z" fill="none" stroke="#009473" stroke-width="2"></path></g><g transform="translate(608 412)"><path d="M0 -46L39.8 -23L39.8 23L0 46L-39.8 23L-39.8 -23Z" fill="none" stroke="#009473" stroke-width="2"></path></g><g transform="translate(463 184)"><path d="M0 -34L29.4 -17L29.4 17L0 34L-29.4 17L-29.4 -17Z" fill="none" stroke="#009473" stroke-width="2"></path></g><g transform="translate(860 189)"><path d="M0 -30L26 -15L26 15L0 30L-26 15L-26 -15Z" fill="none" stroke="#009473" stroke-width="2"></path></g><g transform="translate(899 6)"><path d="M0 -36L31.2 -18L31.2 18L0 36L-31.2 18L-31.2 -18Z" fill="none" stroke="#009473" stroke-width="2"></path></g></g></svg>